<mxfile host="app.diagrams.net" modified="2023-05-29T16:29:15.416Z" agent="Mozilla/5.0 (Windows NT 10.0; Win64; x64) AppleWebKit/537.36 (KHTML, like Gecko) Chrome/113.0.0.0 Safari/537.36" etag="oX3E767KzX2Ssc6fwLk2" version="21.2.1" type="device" pages="2">
  <diagram name="Page-1" id="8RZo4AFlQ0mrcRsK4Pwx">
    <mxGraphModel dx="1050" dy="573" grid="1" gridSize="10" guides="1" tooltips="1" connect="1" arrows="1" fold="1" page="1" pageScale="1" pageWidth="850" pageHeight="1100" math="0" shadow="0">
      <root>
        <mxCell id="0" />
        <mxCell id="1" parent="0" />
        <mxCell id="UTHRMznQWsmgVfgV-bUL-1" value="" style="whiteSpace=wrap;html=1;aspect=fixed;" parent="1" vertex="1">
          <mxGeometry x="110" y="10" width="630" height="630" as="geometry" />
        </mxCell>
        <mxCell id="UTHRMznQWsmgVfgV-bUL-2" value="" style="rounded=0;whiteSpace=wrap;html=1;" parent="1" vertex="1">
          <mxGeometry x="110" y="10" width="630" height="40" as="geometry" />
        </mxCell>
        <mxCell id="UTHRMznQWsmgVfgV-bUL-3" value="" style="rounded=0;whiteSpace=wrap;html=1;" parent="1" vertex="1">
          <mxGeometry x="110" y="55" width="160" height="585" as="geometry" />
        </mxCell>
        <mxCell id="UTHRMznQWsmgVfgV-bUL-4" value="" style="shape=sumEllipse;perimeter=ellipsePerimeter;whiteSpace=wrap;html=1;backgroundOutline=1;" parent="1" vertex="1">
          <mxGeometry x="120" y="15" width="30" height="30" as="geometry" />
        </mxCell>
        <mxCell id="UTHRMznQWsmgVfgV-bUL-5" value="FRETCAT" style="text;html=1;strokeColor=none;fillColor=none;align=center;verticalAlign=middle;whiteSpace=wrap;rounded=0;" parent="1" vertex="1">
          <mxGeometry x="160" y="15" width="60" height="30" as="geometry" />
        </mxCell>
        <mxCell id="UTHRMznQWsmgVfgV-bUL-7" value="PEAK METER" style="rounded=0;whiteSpace=wrap;html=1;" parent="1" vertex="1">
          <mxGeometry x="610" y="20" width="120" height="20" as="geometry" />
        </mxCell>
        <mxCell id="UTHRMznQWsmgVfgV-bUL-8" value="PEAK METER" style="rounded=0;whiteSpace=wrap;html=1;" parent="1" vertex="1">
          <mxGeometry x="450" y="20" width="120" height="20" as="geometry" />
        </mxCell>
        <mxCell id="UTHRMznQWsmgVfgV-bUL-9" value="&lt;div&gt;OUT&lt;/div&gt;" style="text;html=1;align=center;verticalAlign=middle;resizable=0;points=[];autosize=1;strokeColor=none;fillColor=none;" parent="1" vertex="1">
          <mxGeometry x="570" y="15" width="50" height="30" as="geometry" />
        </mxCell>
        <mxCell id="UTHRMznQWsmgVfgV-bUL-10" value="&lt;div&gt;IN&lt;/div&gt;" style="text;html=1;align=center;verticalAlign=middle;resizable=0;points=[];autosize=1;strokeColor=none;fillColor=none;" parent="1" vertex="1">
          <mxGeometry x="420" y="15" width="40" height="30" as="geometry" />
        </mxCell>
        <mxCell id="UTHRMznQWsmgVfgV-bUL-11" value="120" style="rounded=0;whiteSpace=wrap;html=1;" parent="1" vertex="1">
          <mxGeometry x="385" y="20" width="40" height="20" as="geometry" />
        </mxCell>
        <mxCell id="UTHRMznQWsmgVfgV-bUL-12" value="&lt;div&gt;BPM&lt;/div&gt;" style="text;html=1;align=center;verticalAlign=middle;resizable=0;points=[];autosize=1;strokeColor=none;fillColor=none;" parent="1" vertex="1">
          <mxGeometry x="345" y="15" width="50" height="30" as="geometry" />
        </mxCell>
        <mxCell id="UTHRMznQWsmgVfgV-bUL-13" value="" style="rounded=0;whiteSpace=wrap;html=1;" parent="1" vertex="1">
          <mxGeometry x="270" y="50" width="470" height="40" as="geometry" />
        </mxCell>
        <mxCell id="UTHRMznQWsmgVfgV-bUL-14" value="GATE" style="ellipse;whiteSpace=wrap;html=1;aspect=fixed;fontSize=8;" parent="1" vertex="1">
          <mxGeometry x="640" y="58.5" width="25" height="25" as="geometry" />
        </mxCell>
        <mxCell id="UTHRMznQWsmgVfgV-bUL-15" value="PRESET NAME" style="text;html=1;align=center;verticalAlign=middle;resizable=0;points=[];autosize=1;strokeColor=none;fillColor=none;" parent="1" vertex="1">
          <mxGeometry x="260" y="55" width="110" height="30" as="geometry" />
        </mxCell>
        <mxCell id="UTHRMznQWsmgVfgV-bUL-16" value="" style="shape=image;html=1;verticalAlign=top;verticalLabelPosition=bottom;labelBackgroundColor=#ffffff;imageAspect=0;aspect=fixed;image=https://cdn3.iconfinder.com/data/icons/user-interface-169/32/trash-128.png" parent="1" vertex="1">
          <mxGeometry x="702" y="57" width="28" height="28" as="geometry" />
        </mxCell>
        <mxCell id="UTHRMznQWsmgVfgV-bUL-17" value="" style="shape=image;html=1;verticalAlign=top;verticalLabelPosition=bottom;labelBackgroundColor=#ffffff;imageAspect=0;aspect=fixed;image=https://cdn2.iconfinder.com/data/icons/boxicons-regular-vol-3/24/bx-save-128.png" parent="1" vertex="1">
          <mxGeometry x="670" y="57" width="30" height="30" as="geometry" />
        </mxCell>
        <mxCell id="UTHRMznQWsmgVfgV-bUL-19" value="Presets" style="rounded=0;whiteSpace=wrap;html=1;labelBackgroundColor=#030303;fillColor=#000000;fontColor=#EBEBEB;" parent="1" vertex="1">
          <mxGeometry x="120" y="62" width="60" height="20" as="geometry" />
        </mxCell>
        <UserObject label="Effects" link="data:page/id,8RZo4AFlQ0mrcRsK4Pwx" id="UTHRMznQWsmgVfgV-bUL-20">
          <mxCell style="rounded=0;whiteSpace=wrap;html=1;" parent="1" vertex="1">
            <mxGeometry x="200" y="61" width="60" height="20" as="geometry" />
          </mxCell>
        </UserObject>
        <mxCell id="UTHRMznQWsmgVfgV-bUL-22" value="" style="rounded=0;whiteSpace=wrap;html=1;" parent="1" vertex="1">
          <mxGeometry x="730" y="90" width="10" height="550" as="geometry" />
        </mxCell>
        <mxCell id="UTHRMznQWsmgVfgV-bUL-23" value="&lt;div style=&quot;font-size: 7px;&quot;&gt;S&lt;/div&gt;&lt;div style=&quot;font-size: 7px;&quot;&gt;C&lt;/div&gt;&lt;div style=&quot;font-size: 7px;&quot;&gt;R&lt;/div&gt;&lt;div style=&quot;font-size: 7px;&quot;&gt;O&lt;/div&gt;&lt;div style=&quot;font-size: 7px;&quot;&gt;O&lt;/div&gt;&lt;div style=&quot;font-size: 7px;&quot;&gt;L&lt;/div&gt;&lt;div style=&quot;font-size: 7px;&quot;&gt;&lt;br style=&quot;font-size: 7px;&quot;&gt;&lt;/div&gt;" style="rounded=0;whiteSpace=wrap;html=1;fontSize=7;" parent="1" vertex="1">
          <mxGeometry x="730" y="90" width="10" height="60" as="geometry" />
        </mxCell>
        <mxCell id="UTHRMznQWsmgVfgV-bUL-24" value="&lt;div&gt;EFFECT 1&lt;/div&gt;" style="rounded=0;whiteSpace=wrap;html=1;" parent="1" vertex="1">
          <mxGeometry x="270" y="90" width="460" height="150" as="geometry" />
        </mxCell>
        <mxCell id="UTHRMznQWsmgVfgV-bUL-25" value="EFFECT 1 TOOLBAR" style="rounded=0;whiteSpace=wrap;html=1;" parent="1" vertex="1">
          <mxGeometry x="270" y="90" width="460" height="20" as="geometry" />
        </mxCell>
        <mxCell id="UTHRMznQWsmgVfgV-bUL-26" value="" style="ellipse;whiteSpace=wrap;html=1;aspect=fixed;" parent="1" vertex="1">
          <mxGeometry x="675" y="90" width="20" height="20" as="geometry" />
        </mxCell>
        <mxCell id="UTHRMznQWsmgVfgV-bUL-27" value="" style="shape=image;html=1;verticalAlign=top;verticalLabelPosition=bottom;labelBackgroundColor=#ffffff;imageAspect=0;aspect=fixed;image=https://cdn3.iconfinder.com/data/icons/user-interface-169/32/trash-128.png" parent="1" vertex="1">
          <mxGeometry x="706" y="90" width="20" height="20" as="geometry" />
        </mxCell>
        <mxCell id="UTHRMznQWsmgVfgV-bUL-31" value="&lt;div&gt;EFFECT 2&lt;br&gt;&lt;/div&gt;" style="rounded=0;whiteSpace=wrap;html=1;" parent="1" vertex="1">
          <mxGeometry x="270" y="240" width="460" height="150" as="geometry" />
        </mxCell>
        <mxCell id="UTHRMznQWsmgVfgV-bUL-32" value="EFFECT 2 TOOLBAR" style="rounded=0;whiteSpace=wrap;html=1;" parent="1" vertex="1">
          <mxGeometry x="270" y="240" width="460" height="20" as="geometry" />
        </mxCell>
        <mxCell id="UTHRMznQWsmgVfgV-bUL-33" value="" style="ellipse;whiteSpace=wrap;html=1;aspect=fixed;" parent="1" vertex="1">
          <mxGeometry x="675" y="240" width="20" height="20" as="geometry" />
        </mxCell>
        <mxCell id="UTHRMznQWsmgVfgV-bUL-34" value="" style="shape=image;html=1;verticalAlign=top;verticalLabelPosition=bottom;labelBackgroundColor=#ffffff;imageAspect=0;aspect=fixed;image=https://cdn3.iconfinder.com/data/icons/user-interface-169/32/trash-128.png" parent="1" vertex="1">
          <mxGeometry x="706" y="240" width="20" height="20" as="geometry" />
        </mxCell>
        <mxCell id="UTHRMznQWsmgVfgV-bUL-35" value="Preset Type 1" style="rounded=0;whiteSpace=wrap;html=1;" parent="1" vertex="1">
          <mxGeometry x="110" y="110" width="160" height="20" as="geometry" />
        </mxCell>
        <mxCell id="UTHRMznQWsmgVfgV-bUL-36" value="Preset Type 2" style="rounded=0;whiteSpace=wrap;html=1;" parent="1" vertex="1">
          <mxGeometry x="110" y="130" width="160" height="20" as="geometry" />
        </mxCell>
        <mxCell id="UTHRMznQWsmgVfgV-bUL-37" value="&lt;div&gt;Preset Type 3&lt;/div&gt;" style="rounded=0;whiteSpace=wrap;html=1;" parent="1" vertex="1">
          <mxGeometry x="110" y="150" width="160" height="20" as="geometry" />
        </mxCell>
        <mxCell id="UTHRMznQWsmgVfgV-bUL-38" value="User Presets" style="rounded=0;whiteSpace=wrap;html=1;" parent="1" vertex="1">
          <mxGeometry x="110" y="170" width="160" height="20" as="geometry" />
        </mxCell>
        <mxCell id="UTHRMznQWsmgVfgV-bUL-39" value="&lt;div style=&quot;font-size: 10px;&quot;&gt;Preset name 1&lt;/div&gt;" style="rounded=0;whiteSpace=wrap;html=1;fontSize=10;" parent="1" vertex="1">
          <mxGeometry x="110" y="190" width="160" height="20" as="geometry" />
        </mxCell>
        <mxCell id="UTHRMznQWsmgVfgV-bUL-40" value="" style="triangle;whiteSpace=wrap;html=1;direction=north;" parent="1" vertex="1">
          <mxGeometry x="120" y="175" width="10" height="10" as="geometry" />
        </mxCell>
        <mxCell id="UTHRMznQWsmgVfgV-bUL-41" value="" style="triangle;whiteSpace=wrap;html=1;direction=south;" parent="1" vertex="1">
          <mxGeometry x="120" y="155" width="10" height="10" as="geometry" />
        </mxCell>
        <mxCell id="UTHRMznQWsmgVfgV-bUL-42" value="" style="triangle;whiteSpace=wrap;html=1;direction=south;" parent="1" vertex="1">
          <mxGeometry x="120" y="135" width="10" height="10" as="geometry" />
        </mxCell>
        <mxCell id="UTHRMznQWsmgVfgV-bUL-43" value="" style="triangle;whiteSpace=wrap;html=1;direction=south;" parent="1" vertex="1">
          <mxGeometry x="120" y="115" width="10" height="10" as="geometry" />
        </mxCell>
        <mxCell id="UTHRMznQWsmgVfgV-bUL-46" value="&lt;div style=&quot;font-size: 10px;&quot;&gt;Preset name 2&lt;br&gt;&lt;/div&gt;" style="rounded=0;whiteSpace=wrap;html=1;fontSize=10;" parent="1" vertex="1">
          <mxGeometry x="110" y="210" width="160" height="20" as="geometry" />
        </mxCell>
        <mxCell id="UTHRMznQWsmgVfgV-bUL-47" value="Preset name 3" style="rounded=0;whiteSpace=wrap;html=1;fontSize=10;" parent="1" vertex="1">
          <mxGeometry x="110" y="230" width="160" height="20" as="geometry" />
        </mxCell>
        <mxCell id="UTHRMznQWsmgVfgV-bUL-48" value="Search bar" style="rounded=0;whiteSpace=wrap;html=1;" parent="1" vertex="1">
          <mxGeometry x="110" y="90" width="160" height="20" as="geometry" />
        </mxCell>
        <mxCell id="UTHRMznQWsmgVfgV-bUL-49" value="" style="sketch=0;pointerEvents=1;shadow=0;dashed=0;html=1;strokeColor=none;fillColor=#505050;labelPosition=center;verticalLabelPosition=bottom;verticalAlign=top;outlineConnect=0;align=center;shape=mxgraph.office.concepts.search;" parent="1" vertex="1">
          <mxGeometry x="115" y="92.5" width="15" height="15" as="geometry" />
        </mxCell>
      </root>
    </mxGraphModel>
  </diagram>
  <diagram id="oamzThJZeNJtT6CT3Ykc" name="Página-2">
    <mxGraphModel dx="1050" dy="573" grid="1" gridSize="10" guides="1" tooltips="1" connect="1" arrows="1" fold="1" page="1" pageScale="1" pageWidth="827" pageHeight="1169" math="0" shadow="0">
      <root>
        <mxCell id="0" />
        <mxCell id="1" parent="0" />
      </root>
    </mxGraphModel>
  </diagram>
</mxfile>
